<svg width="24" height="24" viewBox="0 0 24 24" fill="none" xmlns="http://www.w3.org/2000/svg">
<g clip-path="url(#clip0_285_7097)">
<path fill-rule="evenodd" clip-rule="evenodd" d="M8.36034 6.62698C9.35734 5.73898 10.4753 4.92098 11.5323 4.10298C11.6028 4.04932 11.6495 3.97029 11.6626 3.8827C11.6757 3.79511 11.654 3.70588 11.6023 3.63398C11.5487 3.56353 11.4696 3.5168 11.3821 3.50373C11.2945 3.49065 11.2052 3.51227 11.1333 3.56398C10.0263 4.33298 8.88834 5.11098 7.80134 5.95898C7.06067 6.51965 6.36234 7.12831 5.70634 7.78498L4.53834 9.02198C4.411 9.14198 4.29467 9.27165 4.18934 9.41098C4.14734 9.46947 4.1177 9.5359 4.10223 9.60621C4.08675 9.67653 4.08577 9.74927 4.09934 9.81998C4.11934 9.97798 4.20234 10.122 4.32934 10.219C4.51334 10.3343 4.70967 10.4243 4.91834 10.489C5.17034 10.562 5.43334 10.595 5.69634 10.588C6.02534 10.588 6.34434 10.538 6.69334 10.508C7.96134 10.358 9.25734 10.198 10.5453 10.129C11.3893 10.0743 12.234 10.0743 13.0793 10.129H16.4213L17.4883 10.179H17.8183C17.9483 10.1943 18.0777 10.1943 18.2063 10.179C18.2998 10.1526 18.3844 10.1016 18.4513 10.0312C18.5182 9.96078 18.5648 9.87366 18.5863 9.77898C18.6088 9.68623 18.6057 9.58915 18.5776 9.49797C18.5494 9.4068 18.4972 9.32492 18.4263 9.26098C17.888 8.75625 17.3323 8.27029 16.7603 7.80398C15.9223 7.11598 15.0643 6.44798 14.2163 5.74898C13.8263 5.42998 13.4883 5.03098 13.1183 4.68198C12.9418 4.51757 12.7554 4.36396 12.5603 4.22198C12.5157 4.18717 12.4641 4.16224 12.409 4.14885C12.354 4.13546 12.2967 4.13391 12.2411 4.14431C12.1854 4.15471 12.1325 4.17682 12.086 4.20917C12.0395 4.24152 12.0004 4.28338 11.9713 4.33198C11.9424 4.37268 11.9218 4.41869 11.9107 4.46736C11.8996 4.51603 11.8982 4.56641 11.9065 4.61563C11.9149 4.66485 11.9329 4.71194 11.9594 4.75421C11.986 4.79648 12.0206 4.8331 12.0613 4.86198C12.226 4.98465 12.379 5.12065 12.5203 5.26998C12.8893 5.63998 13.2283 6.06798 13.6173 6.41798C14.4253 7.14598 15.2633 7.84398 16.0713 8.57298L16.5313 9.00198H16.3713L13.1283 8.90198C12.2318 8.83828 11.3319 8.83828 10.4353 8.90198C9.10834 8.98198 7.80134 9.16198 6.50434 9.33098C6.24434 9.33098 5.95534 9.43098 5.67634 9.45098L6.44434 8.51298C7.045 7.84631 7.68367 7.21765 8.36034 6.62698Z" fill="#E95613"/>
<path fill-rule="evenodd" clip-rule="evenodd" d="M23.8642 11.2155C22.6384 9.42596 21.2088 7.78496 19.6042 6.32546C18.6519 5.45662 17.6524 4.64104 16.6102 3.88246C15.0242 2.73446 13.3782 1.70746 11.8122 0.659463C11.6822 0.559463 11.3622 0.369463 6.39417 4.27146C5.73779 4.79492 5.09942 5.34057 4.48017 5.90746C4.17017 6.21746 3.85117 6.51546 3.54217 6.84546C2.35417 8.11146 1.29617 9.48946 0.0991681 10.7555C0.03566 10.8192 0 10.9055 0 10.9955C0 11.0854 0.03566 11.1717 0.0991681 11.2355C0.164052 11.2963 0.24969 11.3302 0.338668 11.3302C0.427646 11.3302 0.513284 11.2963 0.578168 11.2355L5.34717 6.84546L11.5622 1.45746C11.5622 1.45746 11.5622 1.39746 11.6122 1.35746C13.2482 2.69446 14.8942 4.08146 16.6002 5.45746C17.7482 6.39646 18.9052 7.30446 19.9922 8.29146C21.1795 9.32425 22.2808 10.452 23.2852 11.6635C23.3099 11.7135 23.3453 11.7574 23.3889 11.7922C23.4326 11.827 23.4833 11.8517 23.5376 11.8647C23.5918 11.8776 23.6483 11.8785 23.7029 11.8671C23.7575 11.8558 23.809 11.8326 23.8536 11.7992C23.8983 11.7657 23.935 11.7229 23.9612 11.6736C23.9875 11.6244 24.0025 11.57 24.0053 11.5142C24.0081 11.4585 23.9987 11.4029 23.9775 11.3512C23.9564 11.2996 23.9242 11.2532 23.8832 11.2155H23.8642Z" fill="#020202"/>
<path fill-rule="evenodd" clip-rule="evenodd" d="M22.7263 11.5331C21.4793 11.6131 20.2223 11.6031 18.9753 11.5331C17.0693 11.4631 15.1943 11.3031 13.2783 11.2031H8.37934C5.93534 11.3031 3.50134 11.5531 1.05734 11.8131C0.96928 11.8183 0.88667 11.8575 0.82696 11.9224C0.767251 11.9873 0.735116 12.0729 0.737342 12.1611C0.74501 12.2522 0.788013 12.3367 0.857156 12.3965C0.926299 12.4563 1.0161 12.4867 1.10734 12.4811H1.76534C1.65534 13.1691 1.84034 13.8711 2.27434 14.4161C2.34434 14.4861 2.45434 14.5061 2.53434 14.5661C2.43434 15.0741 2.33434 15.5631 2.27434 16.1121C2.25917 16.3779 2.25917 16.6443 2.27434 16.9101C2.28234 17.1775 2.30568 17.4435 2.34434 17.7081C2.41434 18.3371 2.53434 18.9351 2.65334 19.5541C2.43334 19.6531 2.24234 19.8041 2.09434 19.9931C1.86924 20.3223 1.74771 20.7113 1.74534 21.1101C1.76434 21.5891 1.84834 22.0621 1.99534 22.5171C2.14134 22.9731 1.99534 22.5971 2.05534 22.6371L0.997342 22.7071C0.948187 22.6978 0.897572 22.6994 0.849109 22.7118C0.800646 22.7243 0.75553 22.7473 0.71698 22.7792C0.67843 22.8111 0.647397 22.8511 0.626096 22.8964C0.604795 22.9417 0.59375 22.9911 0.59375 23.0411C0.59375 23.0912 0.604795 23.1406 0.626096 23.1859C0.647397 23.2311 0.67843 23.2712 0.71698 23.3031C0.75553 23.335 0.800646 23.358 0.849109 23.3704C0.897572 23.3829 0.948187 23.3845 0.997342 23.3751H15.0543C17.5783 23.3251 20.1123 23.2651 22.6363 23.2351C22.6857 23.2365 22.7348 23.2279 22.7808 23.21C22.8268 23.192 22.8687 23.1651 22.9041 23.1307C22.9395 23.0963 22.9677 23.0552 22.987 23.0098C23.0062 22.9643 23.0162 22.9155 23.0163 22.8661C23.0162 22.7662 22.9778 22.6702 22.9089 22.5978C22.8401 22.5254 22.7461 22.4822 22.6463 22.4771H22.1473V22.3671C22.2324 21.7983 22.2324 21.22 22.1473 20.6511C22.0776 20.3223 21.9028 20.025 21.6493 19.8041C21.5075 19.6796 21.3403 19.5875 21.1593 19.5341C21.0767 19.5238 20.993 19.5238 20.9103 19.5341C20.9803 18.9951 21.0703 18.4771 21.1303 17.9381C21.1303 17.6881 21.1903 17.4391 21.2003 17.1901C21.2103 16.9401 21.2003 16.7001 21.2003 16.4511C21.2003 15.9921 21.1203 15.5531 21.0603 15.1141H21.3103C21.5763 15.0361 21.8143 14.8841 21.9983 14.6751C22.2313 14.3531 22.3726 13.974 22.4073 13.5781C22.4307 13.1918 22.4139 12.804 22.3573 12.4211H22.7563C22.8059 12.4174 22.8542 12.4037 22.8984 12.3809C22.9426 12.3581 22.9817 12.3266 23.0134 12.2883C23.0452 12.2501 23.0689 12.2058 23.0831 12.1582C23.0974 12.1105 23.1019 12.0605 23.0963 12.0111C23.1137 11.9545 23.1172 11.8945 23.1065 11.8363C23.0959 11.778 23.0714 11.7231 23.0352 11.6763C22.9989 11.6295 22.9519 11.592 22.8982 11.5671C22.8444 11.5422 22.7855 11.5305 22.7263 11.5331ZM13.8763 12.5301C13.8743 12.7381 13.8577 12.9445 13.8263 13.1491C13.7975 13.4039 13.6858 13.6421 13.5083 13.8271C13.4383 13.8971 13.3283 13.8271 13.2183 13.8871C12.919 13.9131 12.6197 13.9131 12.3203 13.8871C11.9537 13.8959 11.5869 13.8758 11.2233 13.8271C11.0388 13.8126 10.859 13.7616 10.6943 13.6771C10.4003 13.3628 10.2332 12.9505 10.2253 12.5201H13.2183L13.8763 12.5301ZM12.6703 17.8381C12.7203 18.3671 12.8203 18.8361 12.8893 19.3941H11.2633V19.3041C11.2633 18.7361 11.3533 18.1771 11.3833 17.6091V16.1721C11.3833 15.9321 11.2833 15.4241 11.2233 15.0551C11.5793 15.1205 11.9383 15.1571 12.3003 15.1651H12.7503C12.6903 15.6031 12.6203 16.0321 12.6003 16.4711C12.5864 16.7073 12.5864 16.944 12.6003 17.1801C12.6103 17.3701 12.6403 17.6091 12.6703 17.8381ZM5.98534 12.4411H6.19534C6.19534 12.6718 6.17534 12.9011 6.13534 13.1291C6.10593 13.3841 5.99349 13.6223 5.81534 13.8071C5.74534 13.8771 5.63534 13.8071 5.52634 13.8671C5.23093 13.8935 4.93376 13.8935 4.63834 13.8671C4.26768 13.8765 3.89868 13.8565 3.53134 13.8071C3.34138 13.7907 3.15737 13.7326 2.99234 13.6371C2.69443 13.3333 2.52626 12.9256 2.52334 12.5001C3.67034 12.4701 4.81834 12.4401 5.98534 12.4401M3.50134 16.1401C3.50134 15.7521 3.40134 15.3731 3.34134 14.9941C3.75434 15.0841 4.17634 15.1271 4.59834 15.1241H5.38734C5.31734 15.5421 5.23734 15.9711 5.19734 16.4001C5.18179 16.6692 5.18179 16.939 5.19734 17.2081V18.0171C5.19734 18.4951 5.29734 19.0141 5.34734 19.4331H5.14734C4.56288 19.388 3.97581 19.388 3.39134 19.4331C3.39134 18.8751 3.47134 18.3261 3.50134 17.7671V16.9791C3.50134 16.7091 3.52134 16.4001 3.50134 16.1411M2.61334 22.4171C2.58965 22.0852 2.58965 21.752 2.61334 21.4201C2.63114 21.1706 2.73343 20.9347 2.90334 20.7511C3.06234 20.6011 3.29134 20.6311 3.55134 20.6111C4.08034 20.6111 4.67834 20.6111 5.11734 20.6611H5.83534C5.98234 20.7681 6.08534 20.9241 6.12534 21.1011C6.20201 21.5198 6.24868 21.9418 6.26534 22.3671C5.02734 22.4471 3.79034 22.5171 2.56334 22.6271C2.60051 22.5637 2.61792 22.4905 2.61334 22.4171ZM8.52934 22.1771C8.03034 22.1771 7.53134 22.2571 7.03334 22.2871C7.1079 21.7313 7.1079 21.168 7.03334 20.6121C6.96325 20.2826 6.78773 19.9849 6.53334 19.7641C6.43477 19.6838 6.32405 19.6197 6.20534 19.5741C6.28534 19.0451 6.36534 18.5761 6.40534 17.9881V16.3701C6.40534 15.8521 6.26534 15.3731 6.18534 14.8341C6.34334 14.7721 6.48934 14.6811 6.61434 14.5641C6.84634 14.2421 6.98734 13.8641 7.02334 13.4671C7.051 13.1354 7.051 12.8019 7.02334 12.4701H9.47734C9.34734 13.1771 9.53334 13.9061 9.98634 14.4651C10.1223 14.5718 10.272 14.6551 10.4353 14.7151C10.314 15.1871 10.2273 15.6658 10.1753 16.1511C10.1553 16.3978 10.1553 16.6438 10.1753 16.8891C10.1873 17.1398 10.214 17.3891 10.2553 17.6371C10.3353 18.2118 10.4453 18.7805 10.5853 19.3431C10.7243 19.9061 10.5853 19.4131 10.5853 19.4531C10.23 19.5247 9.90955 19.7147 9.67634 19.9921C9.45124 20.3213 9.32971 20.7103 9.32734 21.1091C9.33534 21.4471 9.38201 21.7798 9.46734 22.1071L8.52934 22.1771ZM10.1953 22.1771C10.1817 21.925 10.1817 21.6723 10.1953 21.4201C10.2093 21.1701 10.3123 20.9331 10.4853 20.7511C10.6453 20.6011 10.8743 20.6311 11.1333 20.6111C11.6623 20.6111 12.2603 20.6111 12.6993 20.6611H13.4183C13.5647 20.7681 13.6673 20.9244 13.7073 21.1011C13.7807 21.4525 13.8207 21.8081 13.8273 22.1681H11.8303L10.1953 22.1771ZM14.6253 22.1771C14.6998 21.6682 14.6998 21.1511 14.6253 20.6421C14.5555 20.3128 14.3804 20.0151 14.1263 19.7941C13.9945 19.6745 13.8377 19.5857 13.6673 19.5341C13.7373 18.9751 13.8273 18.4171 13.8673 17.8481V17.1301C13.8673 16.8901 13.8673 16.6501 13.8073 16.4111C13.7373 15.9521 13.6173 15.5141 13.5073 15.0651H13.6173C13.8873 14.9891 14.1303 14.8371 14.3163 14.6251C14.5493 14.3051 14.6873 13.9251 14.7153 13.5281C14.7486 13.1963 14.7486 12.862 14.7153 12.5301H17.1893C17.1118 13.1038 17.2279 13.6869 17.5193 14.1871C17.408 14.7671 17.3313 15.3521 17.2893 15.9421V16.7811C17.2893 17.0601 17.2893 17.3291 17.3493 17.6091C17.4193 18.2571 17.5293 18.8861 17.5983 19.5341C17.5983 19.5841 17.5983 19.6141 17.6583 19.6641C17.505 19.7501 17.375 19.8631 17.2683 20.0031C17.0433 20.3331 16.9223 20.7211 16.9203 21.1201C16.927 21.4955 16.977 21.8648 17.0703 22.2281L15.0743 22.1481L14.6253 22.1771ZM21.2893 21.1001C21.3667 21.5228 21.4133 21.9485 21.4293 22.3771C21.4453 22.8061 21.4293 22.3771 21.4293 22.4471L17.7383 22.2871C17.7174 21.9985 17.7174 21.7087 17.7383 21.4201C17.7523 21.1701 17.8543 20.9331 18.0273 20.7511C18.1873 20.6011 18.4163 20.6311 18.6763 20.6111C19.2043 20.6111 19.8033 20.6111 20.2423 20.6611H20.9603C21.1163 20.7534 21.2335 20.8991 21.2903 21.0711L21.2893 21.1001ZM19.9523 17.8281C19.9523 18.3471 20.0523 18.8261 20.1223 19.3641C19.5288 19.2991 18.9299 19.2991 18.3363 19.3641C18.4063 18.7661 18.4763 18.1671 18.5163 17.5591V16.7311C18.5163 16.4611 18.5163 16.1711 18.4663 15.9021C18.4163 15.6331 18.3563 15.1441 18.2863 14.7751C18.3963 14.8498 18.513 14.9131 18.6363 14.9651C19.0773 15.0641 19.5303 15.1101 19.9823 15.1051H20.2423C20.1523 15.4931 20.0523 15.8921 19.9823 16.3021C19.9823 16.5541 19.9623 16.8035 19.9223 17.0501C19.9523 17.3201 19.9523 17.5691 19.9523 17.8281ZM21.5293 13.1291C21.4916 13.3816 21.3803 13.6175 21.2093 13.8071C21.1393 13.8771 21.0203 13.8071 20.9103 13.8671C20.6149 13.8935 20.3178 13.8935 20.0223 13.8671C19.665 13.8671 19.3093 13.8405 18.9553 13.7871C18.7737 13.774 18.5969 13.7229 18.4363 13.6371C18.1363 13.3471 17.9643 12.9481 17.9573 12.5301H18.9553C19.8333 12.5301 20.7113 12.4301 21.5893 12.3501C21.596 12.6108 21.5827 12.8705 21.5493 13.1291H21.5293Z" fill="#020202"/>
</g>
<defs>
<clipPath id="clip0_285_7097">
<rect width="24" height="24" fill="white"/>
</clipPath>
</defs>
</svg>
