<svg width="24" height="19" viewBox="0 0 24 19" fill="none" xmlns="http://www.w3.org/2000/svg">
<g clip-path="url(#clip0_285_7088)">
<path d="M4.36323 18.9061V17.6486C4.36323 17.1664 4.07504 16.8521 3.58107 16.8521C3.33414 16.8521 3.06657 16.9359 2.88132 17.2084C2.73732 16.9779 2.53154 16.8521 2.22282 16.8521C2.01695 16.8521 1.81126 16.9149 1.64654 17.1455V16.894H1.21436V18.9061H1.64654V17.7952C1.64654 17.439 1.83179 17.2713 2.11998 17.2713C2.40798 17.2713 2.55217 17.4599 2.55217 17.7952V18.9061H2.98436V17.7952C2.98436 17.439 3.19004 17.2713 3.45761 17.2713C3.74579 17.2713 3.88979 17.4599 3.88979 17.7952V18.9061H4.36323ZM10.7636 16.894H10.064V16.2862H9.63179V16.894H9.24076V17.2922H9.6317V18.2145C9.6317 18.6756 9.81695 18.948 10.3109 18.948C10.4962 18.948 10.7019 18.8852 10.846 18.8014L10.7225 18.4241C10.599 18.5079 10.455 18.5289 10.3521 18.5289C10.1463 18.5289 10.064 18.4031 10.064 18.1935V17.2922H10.7636V16.894ZM14.427 16.852C14.1801 16.852 14.0154 16.9779 13.9125 17.1455V16.894H13.4803V18.9061H13.9125V17.7743C13.9125 17.439 14.0565 17.2504 14.3241 17.2504C14.4064 17.2504 14.5093 17.2714 14.5916 17.2923L14.7151 16.8731C14.6328 16.8521 14.5093 16.8521 14.427 16.8521M8.89089 17.0618C8.68501 16.915 8.39692 16.8522 8.0882 16.8522C7.59432 16.8522 7.26507 17.1037 7.26507 17.5019C7.26507 17.8374 7.51201 18.0259 7.9442 18.0888L8.14998 18.1098C8.37639 18.1517 8.49986 18.2146 8.49986 18.3194C8.49986 18.4661 8.33523 18.5709 8.04704 18.5709C7.75886 18.5709 7.53254 18.4661 7.38845 18.3613L7.18267 18.6966C7.40907 18.8643 7.71779 18.9481 8.02642 18.9481C8.6027 18.9481 8.93204 18.6757 8.93204 18.2984C8.93204 17.9421 8.66448 17.7534 8.25282 17.6906L8.04704 17.6696C7.86179 17.6486 7.71779 17.6068 7.71779 17.481C7.71779 17.3343 7.86179 17.2505 8.0882 17.2505C8.33523 17.2505 8.58217 17.3552 8.70564 17.4181L8.89089 17.0618ZM20.3748 16.8522C20.1278 16.8522 19.9631 16.978 19.8602 17.1456V16.8941H19.428V18.9062H19.8602V17.7744C19.8602 17.4391 20.0043 17.2505 20.2718 17.2505C20.3542 17.2505 20.4571 17.2715 20.5394 17.2924L20.6629 16.8732C20.5806 16.8522 20.4571 16.8522 20.3748 16.8522ZM14.8592 17.9002C14.8592 18.508 15.2708 18.9481 15.9088 18.9481C16.1969 18.9481 16.4027 18.8853 16.6085 18.7177L16.4027 18.3613C16.2381 18.4871 16.0735 18.5499 15.8882 18.5499C15.5383 18.5499 15.2914 18.2984 15.2914 17.9002C15.2914 17.5229 15.5383 17.2714 15.8882 17.2505C16.0735 17.2505 16.2381 17.3133 16.4027 17.4391L16.6085 17.0828C16.4027 16.915 16.1969 16.8522 15.9088 16.8522C15.2708 16.8522 14.8592 17.2924 14.8592 17.9002ZM18.8518 17.9002V16.8941H18.4196V17.1456C18.2755 16.957 18.0698 16.8522 17.8022 16.8522C17.2465 16.8522 16.8144 17.2924 16.8144 17.9002C16.8144 18.508 17.2465 18.9481 17.8022 18.9481C18.0903 18.9481 18.2962 18.8434 18.4196 18.6547V18.9062H18.8518V17.9002ZM17.2671 17.9002C17.2671 17.5439 17.4935 17.2505 17.8639 17.2505C18.2138 17.2505 18.4608 17.5229 18.4608 17.9002C18.4608 18.2565 18.2138 18.5499 17.8639 18.5499C17.4935 18.5289 17.2671 18.2565 17.2671 17.9002ZM12.1014 16.8522C11.5252 16.8522 11.1135 17.2714 11.1135 17.9002C11.1135 18.529 11.5251 18.9481 12.122 18.9481C12.4101 18.9481 12.6983 18.8643 12.9247 18.6757L12.7188 18.3613C12.5542 18.4871 12.3484 18.5709 12.1426 18.5709C11.875 18.5709 11.6075 18.4452 11.5457 18.0887H13.007V17.9212C13.0276 17.2714 12.6572 16.8522 12.1014 16.8522ZM12.1014 17.2294C12.3688 17.2294 12.5542 17.3972 12.5952 17.7116H11.5662C11.6074 17.4391 11.7926 17.2294 12.1014 17.2294ZM22.8237 17.9002V16.0977H22.3915V17.1456C22.2474 16.957 22.0417 16.8522 21.7741 16.8522C21.2184 16.8522 20.7863 17.2924 20.7863 17.9002C20.7863 18.508 21.2184 18.9481 21.7741 18.9481C22.0623 18.9481 22.2681 18.8434 22.3915 18.6547V18.9062H22.8237V17.9002ZM21.2391 17.9002C21.2391 17.5439 21.4654 17.2505 21.8359 17.2505C22.1858 17.2505 22.4327 17.5229 22.4327 17.9002C22.4327 18.2565 22.1858 18.5499 21.8359 18.5499C21.4654 18.5289 21.2391 18.2565 21.2391 17.9002ZM6.79154 17.9002V16.8941H6.35936V17.1456C6.21526 16.957 6.00948 16.8522 5.74192 16.8522C5.18626 16.8522 4.75407 17.2924 4.75407 17.9002C4.75407 18.508 5.18626 18.9481 5.74192 18.9481C6.03011 18.9481 6.23589 18.8434 6.35936 18.6547V18.9062H6.79154V17.9002ZM5.18626 17.9002C5.18626 17.5439 5.41267 17.2505 5.78307 17.2505C6.13295 17.2505 6.37998 17.5229 6.37998 17.9002C6.37998 18.2565 6.13295 18.5499 5.78307 18.5499C5.41267 18.5289 5.18626 18.2565 5.18626 17.9002Z" fill="black"/>
<path d="M8.74658 1.61328H15.2294V13.4764H8.74658V1.61328Z" fill="#FF5F00"/>
<path d="M9.15834 7.54548C9.15834 5.13516 10.2697 2.99723 11.9778 1.61385C10.7225 0.607809 9.13781 0 7.40906 0C3.31341 0 0 3.37446 0 7.54548C0 11.7165 3.31341 15.091 7.40897 15.091C9.13772 15.091 10.7224 14.4832 11.9778 13.477C10.2697 12.1146 9.15834 9.95581 9.15834 7.54548Z" fill="#EB001B"/>
<path d="M23.9763 7.54548C23.9763 11.7164 20.6629 15.091 16.5673 15.091C14.8386 15.091 13.2539 14.4832 11.9985 13.477C13.7273 12.0937 14.8181 9.95581 14.8181 7.54548C14.8181 5.13516 13.7067 2.99723 11.9985 1.61385C13.2538 0.607809 14.8386 0 16.5673 0C20.6629 0 23.9763 3.39546 23.9763 7.54548Z" fill="#F79E1B"/>
</g>
<defs>
<clipPath id="clip0_285_7088">
<rect width="24" height="19" fill="white"/>
</clipPath>
</defs>
</svg>
