<svg width="24" height="28" viewBox="0 0 24 28" fill="none" xmlns="http://www.w3.org/2000/svg">
<g clip-path="url(#clip0_285_7106)">
<path d="M20.3596 2.17802C19.0533 0.705517 16.692 0.0742188 13.671 0.0742188H4.90355C4.60464 0.0741732 4.31553 0.179609 4.08822 0.371561C3.8609 0.563513 3.71031 0.829383 3.66352 1.12134L0.0128914 24.0189C-0.0596711 24.4705 0.29386 24.8793 0.75661 24.8793H6.16936L7.52874 16.3522L7.48655 16.6193C7.58339 16.0165 8.10464 15.5719 8.72189 15.5719H11.294C16.347 15.5719 20.3035 13.5422 21.4592 7.67066C21.4935 7.497 21.5233 7.32798 21.549 7.16285C21.4031 7.08646 21.4031 7.08646 21.549 7.16285C21.8931 4.99267 21.5466 3.51544 20.3596 2.17802Z" fill="#27346A"/>
<path d="M9.59986 6.38108C9.7478 6.31129 9.90967 6.27517 10.0736 6.27538H16.9471C17.7611 6.27538 18.5203 6.32777 19.214 6.43819C19.4081 6.46883 19.6013 6.50537 19.7931 6.54778C20.065 6.60713 20.3338 6.67975 20.5984 6.76538C20.9395 6.87803 21.2571 7.00922 21.549 7.16285C21.8931 4.99183 21.5466 3.51544 20.3596 2.17802C19.0526 0.705517 16.692 0.0742188 13.671 0.0742188H4.9028C4.28545 0.0742188 3.76027 0.518696 3.66352 1.12134L0.0128919 24.0181C-0.0596706 24.4704 0.293861 24.8787 0.755861 24.8787H6.16936L8.98964 7.19141C9.0174 7.01757 9.08743 6.85299 9.19373 6.71184C9.30002 6.57069 9.4394 6.45718 9.59986 6.38108Z" fill="#27346A"/>
<path d="M21.4591 7.67186C20.3033 13.5426 16.3469 15.5731 11.2939 15.5731H8.72099C8.10374 15.5731 7.5824 16.0177 7.48649 16.6205L5.79533 27.2229C5.73215 27.6181 6.04115 27.9761 6.4454 27.9761H11.0082C11.2696 27.9761 11.5224 27.8838 11.7211 27.7159C11.9198 27.5479 12.0514 27.3154 12.0922 27.0601L12.1367 26.8302L12.9966 21.4401L13.0521 21.1422C13.0929 20.8869 13.2245 20.6544 13.4232 20.4865C13.6219 20.3185 13.8746 20.2262 14.136 20.2262H14.8189C19.2389 20.2262 22.6999 18.4503 23.7112 13.3142C24.1334 11.1679 23.915 9.37588 22.7982 8.11717C22.4595 7.73593 22.0388 7.42107 21.5488 7.16406C21.5223 7.33002 21.4935 7.49821 21.4591 7.67186Z" fill="#2790C3"/>
<path d="M20.3394 6.68798C20.1592 6.63594 19.9773 6.58987 19.794 6.54984C19.602 6.5081 19.4089 6.47181 19.2149 6.44099C18.5204 6.32982 17.7617 6.27735 16.9471 6.27735H10.0743C9.91033 6.27707 9.74838 6.31349 9.60062 6.38388C9.43994 6.4597 9.30039 6.57313 9.19404 6.71433C9.08769 6.85553 9.01776 7.02025 8.9903 7.19421L7.52949 16.3543L7.4873 16.6213C7.5834 16.0186 8.10465 15.574 8.72199 15.574H11.2949C16.3478 15.574 20.3042 13.5443 21.46 7.67271C21.4944 7.49905 21.5233 7.33078 21.5498 7.16491C21.2572 7.01224 20.9403 6.87999 20.5992 6.76818C20.5131 6.73995 20.4265 6.71322 20.3395 6.68798" fill="#1F264F"/>
</g>
<defs>
<clipPath id="clip0_285_7106">
<rect width="24" height="28" fill="white"/>
</clipPath>
</defs>
</svg>
