<svg width="15" height="15" viewBox="0 0 15 15" fill="none" xmlns="http://www.w3.org/2000/svg">
<path d="M14.0633 11.6367C14.0633 11.8767 14.01 12.1233 13.8967 12.3633C13.7833 12.6033 13.6367 12.83 13.4433 13.0433C13.1167 13.4033 12.7567 13.6633 12.35 13.83C11.95 13.9967 11.5167 14.0833 11.05 14.0833C10.37 14.0833 9.64333 13.9233 8.87667 13.5967C8.11 13.27 7.34333 12.83 6.58333 12.2767C5.81667 11.7167 5.09 11.0967 4.39667 10.41C3.71 9.71667 3.09 8.99 2.53667 8.23C1.99 7.47 1.55 6.71 1.23 5.95667C0.91 5.19667 0.75 4.47 0.75 3.77667C0.75 3.32333 0.83 2.89 0.99 2.49C1.15 2.08333 1.40333 1.71 1.75667 1.37667C2.18333 0.956667 2.65 0.75 3.14333 0.75C3.33 0.75 3.51667 0.79 3.68333 0.87C3.85667 0.95 4.01 1.07 4.13 1.24333L5.67667 3.42333C5.79667 3.59 5.88333 3.74333 5.94333 3.89C6.00333 4.03 6.03667 4.17 6.03667 4.29667C6.03667 4.45667 5.99 4.61667 5.89667 4.77C5.81 4.92333 5.68333 5.08333 5.52333 5.24333L5.01667 5.77C4.94333 5.84333 4.91 5.93 4.91 6.03667C4.91 6.09 4.91667 6.13667 4.93 6.19C4.95 6.24333 4.97 6.28333 4.98333 6.32333C5.10333 6.54333 5.31 6.83 5.60333 7.17667C5.90333 7.52333 6.22333 7.87667 6.57 8.23C6.93 8.58333 7.27667 8.91 7.63 9.21C7.97667 9.50333 8.26333 9.70333 8.49 9.82333C8.52333 9.83667 8.56333 9.85667 8.61 9.87667C8.66333 9.89667 8.71667 9.90333 8.77667 9.90333C8.89 9.90333 8.97667 9.86333 9.05 9.79L9.55667 9.29C9.72333 9.12333 9.88333 8.99667 10.0367 8.91667C10.19 8.82333 10.3433 8.77667 10.51 8.77667C10.6367 8.77667 10.77 8.80333 10.9167 8.86333C11.0633 8.92333 11.2167 9.01 11.3833 9.12333L13.59 10.69C13.7633 10.81 13.8833 10.95 13.9567 11.1167C14.0233 11.2833 14.0633 11.45 14.0633 11.6367Z" stroke="#818383" stroke-width="1.5" stroke-miterlimit="10"/>
</svg>
