<svg width="14" height="14" viewBox="0 0 14 14" fill="none" xmlns="http://www.w3.org/2000/svg">
<path d="M6.50662 0.982549C6.53482 0.91377 6.58284 0.854933 6.64457 0.813522C6.7063 0.772112 6.77896 0.75 6.85329 0.75C6.92763 0.75 7.00028 0.772112 7.06201 0.813522C7.12374 0.854933 7.17176 0.91377 7.19996 0.982549L8.61662 4.38988C8.64314 4.45364 8.68674 4.50885 8.74261 4.54942C8.79848 4.59 8.86446 4.61438 8.93329 4.61988L12.612 4.91455C12.9446 4.94122 13.0793 5.35655 12.826 5.57322L10.0233 7.97455C9.97093 8.01934 9.93191 8.07769 9.91051 8.14319C9.8891 8.20869 9.88615 8.27881 9.90196 8.34588L10.7586 11.9359C10.7758 12.0079 10.7713 12.0834 10.7457 12.1529C10.72 12.2223 10.6743 12.2826 10.6144 12.3262C10.5545 12.3697 10.483 12.3945 10.409 12.3974C10.335 12.4003 10.2618 12.3812 10.1986 12.3425L7.04862 10.4192C6.98978 10.3834 6.9222 10.3644 6.85329 10.3644C6.78438 10.3644 6.7168 10.3834 6.65796 10.4192L3.50796 12.3432C3.4448 12.3819 3.37159 12.401 3.2976 12.398C3.2236 12.3951 3.15212 12.3703 3.0922 12.3268C3.03228 12.2833 2.9866 12.223 2.96093 12.1535C2.93525 12.0841 2.93074 12.0086 2.94796 11.9365L3.80462 8.34588C3.82051 8.27882 3.81759 8.20867 3.79618 8.14315C3.77478 8.07764 3.73571 8.0193 3.68329 7.97455L0.880624 5.57322C0.8245 5.52496 0.783897 5.46118 0.763923 5.38991C0.74395 5.31863 0.745496 5.24304 0.768368 5.17265C0.79124 5.10225 0.834416 5.04019 0.892468 4.99426C0.950519 4.94834 1.02085 4.92061 1.09462 4.91455L4.77329 4.61988C4.84212 4.61438 4.90811 4.59 4.96398 4.54942C5.01985 4.50885 5.06344 4.45364 5.08996 4.38988L6.50662 0.982549Z" stroke="#080B0A" stroke-width="1.5" stroke-linecap="round" stroke-linejoin="round"/>
</svg>
